<svg xmlns="http://www.w3.org/2000/svg" fill="none" viewBox="0 0 600 600"><path fill="#252F3E" d="M169 251q.1 11 2.3 17.7 2.3 6.6 6.4 14.3 1.4 2.4 1.4 4.6 0 3-3.8 6l-12.6 8.4a10 10 0 0 1-5.2 1.8q-3 0-6-2.8-4.2-4.6-7.2-9.4-3-5-6.1-11.8a74 74 0 0 1-58.7 27.6 55 55 0 0 1-40-14.4 51 51 0 0 1-14.7-38.3q0-25.5 18.2-41.1Q61 198 91.9 198q10 0 21.1 1.6 11 1.6 23 4.4v-14.6q0-22.6-9.4-31.9-9.6-9.2-32.5-9.2-10.5 0-21.6 2.6-11.1 2.7-21.5 6.8a57 57 0 0 1-10.2 3.2q-4.2 0-4.2-6.2V145q0-4.7 1.4-7a15 15 0 0 1 5.6-4.1q10.5-5.4 25.1-9a121 121 0 0 1 31.1-3.8q35.6 0 52.3 16.2 16.5 16.1 16.6 49V251zm-81 30.2q10 0 20.6-3.6a45 45 0 0 0 19-12.7q4.9-5.6 6.8-12.8t2-17.4v-8.3a167 167 0 0 0-37.2-4.6q-19.9 0-29.7 8t-9.8 23q0 14 7.4 21 7.2 7.4 21 7.4m160.3 21.6q-5.3 0-7.6-2-2.4-2-4.2-7.8l-46.9-154.2a35 35 0 0 1-1.8-8q0-4.9 4.8-5h19.6q5.7 0 7.8 2 2.3 2 4 7.8l33.5 132 31.1-132q1.4-6 3.8-7.8 2.5-1.9 8-2h16q5.5 0 8 2t3.7 7.8l31.6 133.7 34.5-133.7q1.9-6 4-7.8a13 13 0 0 1 7.8-2h18.5q4.9 0 5 5 0 1.4-.4 3.2-.2 1.8-1.4 5l-48 154.2q-2 6-4.3 7.8-2.4 1.9-7.6 2h-17.1q-5.7 0-8-2-2.5-2-3.8-8l-31-128.7-30.7 128.5q-1.5 6-3.7 8-2.5 2-8 2zm256.4 5.4a132 132 0 0 1-53.6-11.6q-4.9-2.8-6.2-5.6a14 14 0 0 1-1.2-5.6v-10.1q0-6.2 4.6-6.2 1.8 0 3.6.6l5 2a109 109 0 0 0 45.6 9.3q19 0 29.2-6.5a22 22 0 0 0 10.4-19q0-8.3-5.4-14a50 50 0 0 0-20.2-10.3l-29-9a61 61 0 0 1-31.9-20.4 47.5 47.5 0 0 1 9.8-67.4q8.9-6.8 20.8-10.4a100 100 0 0 1 38.5-2.6q6.8 1 13 2.2 6 1.4 11.3 3.2t8.4 3.6q4.2 2.3 6 5 1.8 2.4 1.8 6.6v9.3q0 6.3-4.6 6.4-2.5 0-7.6-2.4a91 91 0 0 0-38.3-7.8 52 52 0 0 0-26.5 5.6q-9.4 5.6-9.4 17.8 0 8.4 6 14.2 6 5.6 22 11l28.3 9a61 61 0 0 1 30.9 19 45 45 0 0 1 9.2 28q0 13-5.2 23.2a54 54 0 0 1-14.6 17.5q-9.2 7.4-22.1 11.2-13.4 4.2-28.6 4.2"/><path fill="#F90" d="M542.5 405.2c-65.7 48.5-161 74.2-243.1 74.2-115 0-218.5-42.5-296.7-113.1-6.2-5.6-.6-13.2 6.7-8.8 84.7 49 189 78.8 297 78.8 72.8 0 152.8-15.2 226.5-46.3 11-5 20.3 7.2 9.6 15.2m27.3-31.2c-8.4-10.7-55.5-5.2-76.8-2.6-6.4.8-7.4-4.7-1.6-9 37.5-26.3 99.1-18.7 106.3-10 7.2 9-2 70.7-37 100.3-5.5 4.5-10.7 2.2-8.3-3.8 8-19.8 25.8-64.3 17.4-74.9"/></svg>