<svg xmlns="http://www.w3.org/2000/svg" fill="none" viewBox="0 0 600 600"><path fill="#264DE4" d="m299.7 600-173.6-48.2L87.5 118h425l-38.7 433.8z"/><path fill="#2965F1" d="m440.7 524.1 33-370.7H300V563z"/><path fill="#EBEBEB" d="m176.1 314.3 4.8 53.2H300v-53.2zm-9.5-107.7 4.8 53.2H300v-53.2zM300 452.5h-.2l-59.3-16-3.8-42.4h-53.4l7.4 83.6 109 30.3.3-.1z"/><path fill="#000" d="M187.5 0H252v27h-37.5v27H252v26.9h-64.5zm77.3 0h64.5v23.4h-37.5v4.7h37.5v54h-64.5V57.3h37.5v-4.7h-37.5zm77.4 0h64.4v23.4h-37.5v4.7h37.5v54h-64.4V57.3h37.5v-4.7h-37.5z"/><path fill="#fff" d="m423.5 314.3 9.6-107.7H299.8v53.2h75l-4.8 54.5h-70.2v53.2h65.5l-6.1 69-59.4 16V508L409 477.7l.8-9 12.5-140z"/></svg>