<svg xmlns="http://www.w3.org/2000/svg" fill="none" viewBox="0 0 600 600"><path fill="#2396ED" d="M587.6 248.7c-13.5-9.3-44.5-12.9-68.7-8.2q-4.3-35-38.2-62l-13-9.5-9 13.5a111 111 0 0 0-15.2 65.6 79 79 0 0 0 11.8 35.8 94 94 0 0 1-45.6 10.5H2.7l-1.1 4.7c-4 23.5-4 96.7 42.2 153q52.6 64.2 154.8 64.4c147.5 0 256.7-70.9 308-199.2 20.2.6 63.6 0 85.5-44l5.6-12.3 2.3-4.6zM328.1 83.5h-62v58.6h62zm0 70.3h-62v58.6h62zm-73.2 0h-62v58.6h62zm-73.2 0h-61.9v58.6h62zm-73.2 70.3H46.6v58.6h62zm73.2 0h-61.9v58.6h62zm73.2 0h-62v58.6h62zm73.2 0h-62v58.6h62zm73.2 0h-62v58.6h62z"/></svg>