<svg xmlns="http://www.w3.org/2000/svg" fill="none" viewBox="0 0 600 600"><path fill="#161614" d="M300 7.4a300 300 0 0 0-94.8 584.7c15 2.8 20.5-6.5 20.5-14.5l-.4-55.8c-83.5 18.1-101.1-35.4-101.1-35.4-13.7-34.7-33.3-43.9-33.3-43.9-27.3-18.6 2-18.2 2-18.2 30.1 2 46 30.9 46 30.9 26.8 45.8 70.2 32.6 87.3 25a64 64 0 0 1 19-40.2c-66.6-7.6-136.6-33.3-136.6-148.3a116 116 0 0 1 30.9-80.5c-3.1-7.5-13.4-38 2.9-79.4 0 0 25.2-8 82.5 30.8a288 288 0 0 1 150.3 0c57.2-38.8 82.4-30.8 82.4-30.8 16.3 41.3 6 71.9 3 79.4a116 116 0 0 1 30.8 80.5c0 115.3-70.2 140.6-137 148 10.8 9.4 20.4 27.6 20.4 55.6 0 40.2-.4 72.5-.4 82.3 0 8 5.4 17.4 20.6 14.4A300 300 0 0 0 300 7.4M112.4 434.8c-.7 1.5-3 1.9-5.2.9s-3.4-3-2.7-4.5c.7-1.6 3-2 5.2-1s3.4 3 2.7 4.6m14.7 13.1c-1.4 1.4-4.2.7-6.1-1.4-2-2-2.3-4.8-.9-6.2 1.5-1.3 4.2-.7 6.2 1.4s2.3 4.9.8 6.2m10.1 16.9c-1.8 1.3-4.8 0-6.7-2.6-1.8-2.7-1.8-5.9 0-7.2 2-1.2 4.9 0 6.8 2.6 1.8 2.7 1.8 5.9 0 7.2m17.2 19.5c-1.7 1.8-5.2 1.3-7.7-1.2-2.7-2.4-3.4-5.8-1.8-7.6 1.7-1.8 5.2-1.3 7.8 1.1s3.4 5.9 1.7 7.7m22 6.6c-.6 2.3-4 3.4-7.4 2.4s-5.6-3.8-5-6.2c.8-2.3 4.2-3.4 7.6-2.4s5.6 3.8 4.9 6.2m25.3 2.8c0 2.4-2.8 4.5-6.4 4.5-3.6.1-6.5-1.9-6.5-4.3 0-2.5 2.8-4.5 6.4-4.6s6.5 2 6.5 4.4m24.7-1c.4 2.4-2 5-5.6 5.6s-6.7-.9-7.1-3.3c-.5-2.4 2-5 5.5-5.6 3.6-.6 6.8.9 7.2 3.3"/></svg>