<svg xmlns="http://www.w3.org/2000/svg" fill="none" viewBox="0 0 600 600"><path fill="#5382A1" d="M221.3 464s-23 13.3 16.3 17.9c47.5 5.4 71.8 4.6 124.2-5.3 0 0 13.8 8.6 33 16.1-117.4 50.3-265.8-3-173.5-28.7M207 398.3s-25.8 19 13.5 23.1c50.8 5.3 90.9 5.7 160.3-7.7 0 0 9.6 9.8 24.7 15-142 41.6-300.2 3.4-198.6-30.4"/><path fill="#E76F00" d="M327.9 286.9c29 33.3-7.6 63.3-7.6 63.3s73.5-38 39.7-85.4c-31.5-44.3-55.7-66.4 75.2-142.3 0 0-205.4 51.3-107.3 164.4"/><path fill="#5382A1" d="M483.3 512.6s17 14-18.7 24.8c-67.8 20.5-282.2 26.7-341.8.8-21.4-9.3 18.8-22.2 31.4-25 13.2-2.8 20.7-2.3 20.7-2.3-23.8-16.7-153.9 33-66 47.2 239.4 38.8 436.5-17.5 374.4-45.5m-251-182.3s-109 25.9-38.6 35.3c29.7 4 89 3 144.2-1.6 45.1-3.8 90.5-11.9 90.5-11.9s-16 6.8-27.5 14.7c-110.7 29.1-324.6 15.6-263-14.2 52-25.2 94.4-22.3 94.4-22.3M428 439.6c112.5-58.5 60.4-114.7 24.1-107.1a84 84 0 0 0-12.9 3.4s3.3-5.1 9.6-7.4c72-25.3 127.2 74.5-23.2 114 0 0 1.8-1.5 2.3-2.9"/><path fill="#E76F00" d="M360 0s62.4 62.4-59 158.3c-97.5 76.9-22.3 120.8-.1 170.9-56.9-51.3-98.6-96.5-70.6-138.5C271.3 129 385.2 99 360 0"/><path fill="#5382A1" d="M243.3 598.1c108.1 7 274-3.8 278-55 0 0-7.6 19.4-89.3 34.8-92.3 17.4-206 15.4-273.5 4.2 0 0 13.8 11.5 84.8 16"/></svg>