<svg xmlns="http://www.w3.org/2000/svg" fill="none" viewBox="0 0 600 600"><path fill="#539E43" d="M300 600q-12.4-.2-23.2-6l-73.3-43.6c-11-6-5.5-8.3-2.2-9.4 15-5 17.7-6 33.1-14.9 1.7-1 3.9-.5 5.5.6l56.2 33.6c2.2 1.1 5 1.1 6.7 0L522.7 433q3.3-1.8 3.3-6V172.7c0-2.7-1.1-5-3.3-6L302.7 40c-2.1-1.1-4.9-1.1-6.6 0L76.2 166.7c-2.2 1.1-3.3 3.9-3.3 6.1V427c0 2.2 1.1 5 3.3 6l60 34.8c32.6 16.5 53-2.7 53-22V194.9c0-3.4 2.8-6.7 6.6-6.7H224c3.3 0 6.6 2.8 6.6 6.7v250.8c0 43.5-23.7 68.9-65 68.9-12.7 0-22.6 0-50.7-13.8l-57.9-33a47 47 0 0 1-23.1-40.3V173.4c0-16.6 8.8-32 23.1-40.3L277 5.8a49 49 0 0 1 46.3 0L543 133a47 47 0 0 1 23.1 40.3v254c0 16.6-8.8 32-23.1 40.3L323 595c-7.1 3.3-15.4 5-23.1 5m67.8-174.7c-96.5 0-116.3-44.1-116.3-81.6 0-3.3 2.7-6.6 6.6-6.6h28.7c3.3 0 6 2.2 6 5.5 4.4 29.2 17.1 43.5 75.6 43.5 46.3 0 66.1-10.4 66.1-35.2 0-14.4-5.5-24.9-77.7-32-60.1-6-97.6-19.3-97.6-67.3 0-44.6 37.5-71 100.3-71 70.6 0 105.3 24.2 109.7 77q0 2.6-1.6 5c-1.1 1.2-2.8 2.3-4.4 2.3h-28.7a6.5 6.5 0 0 1-6-5c-6.7-30.3-23.8-40.2-69-40.2-50.7 0-56.7 17.6-56.7 30.8 0 16 7.1 21 75.5 29.8C446 289 478 301.8 478 349.2c-.5 48.5-40.2 76-110.2 76"/></svg>