<svg xmlns="http://www.w3.org/2000/svg" fill="none" viewBox="0 0 600 600"><path fill="#000" d="M589.4 359.4a30 30 0 0 0-24.5-19.7q-8.3-1.3-19.5 1a176 176 0 0 1-30.2 4c27-45.5 49-97.5 61.6-146.3 20.4-79.1 9.5-115.1-3.3-131.4-33.7-43.1-83-66.3-142.3-67-31.7-.4-59.5 5.9-74 10.4q-20.3-3.6-43.3-4-43-.6-75.4 18.6c-12-4-31-9.7-53.2-13.4-52-8.5-94-1.9-124.7 19.8C23.4 57.7 6.2 103.3 9.4 167c1 20.2 12.3 81.7 30.1 140A484 484 0 0 0 72 390c16 30.3 33.1 48.2 52.3 54.6a52 52 0 0 0 51-11q3.8 4.6 10.7 9.2 9.2 5.7 20.3 8.5c25.8 6.4 50 4.8 70.7-4.2q0 5.5.3 10.2l.4 14.2c1.3 30.5 3.3 54.2 9.5 70.8l1.2 3.7c3.1 9.4 8.2 25.1 21.3 37.4a63 63 0 0 0 44.8 16.7q11.4-.2 20.9-2.3c22.4-4.8 47.8-12.1 66.2-38.3 17.4-24.8 25.8-62 27.3-120.8l.6-4.7.4-3.1 4 .3 1.1.1a162 162 0 0 0 67.8-11.7c13.5-6.3 56.8-29.2 46.6-60"/><path fill="#336791" d="M550.5 365.4c-67.8 14-72.5-9-72.5-9 71.6-106.1 101.5-240.9 75.7-273.9-70.4-90-192.3-47.4-194.4-46.3l-.6.1a242 242 0 0 0-45.2-4.7c-30.7-.5-54 8-71.6 21.4 0 0-217.5-89.6-207.4 112.7 2.2 43 61.7 325.6 132.7 240.2 26-31.2 51-57.6 51-57.6a66 66 0 0 0 43 11l1.2-1q-.5 5.7.5 12.1c-18.3 20.5-12.9 24-49.5 31.6-37 7.6-15.2 21.2-1 24.7 17.2 4.3 57 10.4 83.9-27.2l-1.1 4.3c7.2 5.7 12.2 37.3 11.3 66-.8 28.6-1.4 48.3 4.3 63.6s11.3 50 59.3 39.6c40.2-8.6 61-30.9 63.9-68 2-26.5 6.7-22.6 7-46.3l3.7-11.1c4.3-35.9.7-47.5 25.4-42l6 .4c18.3.9 42-2.9 56-9.4 30.2-14 48-37.3 18.4-31.2"/><path fill="#fff" d="M254.6 185c-6-.9-11.6-.1-14.4 2a5 5 0 0 0-2.2 3.5c-.4 2.5 1.4 5.3 2.5 6.8 3 4 7.5 6.8 12 7.4l1.9.2c7.4 0 14.1-5.8 14.7-10 .7-5.4-7-9-14.5-10m202.4.2c-.6-4.2-8-5.3-15.1-4.4-7 1-13.9 4.2-13.3 8.4.5 3.2 6.3 8.8 13.3 8.8q1 0 1.7-.2a17 17 0 0 0 9.7-5.2c2.5-2.6 3.9-5.5 3.6-7.4"/><path fill="#fff" d="M573 363.8q-4-11.7-24.7-7.4c-41 8.4-55.7 2.6-60.5-1a564 564 0 0 0 72.2-162c6.7-26 10.4-50.2 10.7-69.8q.5-32.5-10.9-47c-30.5-39.1-75.3-60-129.6-60.6-37.3-.4-68.8 9.1-75 11.8a187 187 0 0 0-42-5.4q-42.2-.7-72.3 19.9c-8.7-3.3-31.2-11-58.7-15.4C134.6 19.2 96.8 25 69.8 44c-32.1 22.8-47 63.6-44.1 121.2 1 19.4 12 79 29.4 136 23 75.1 47.9 117.7 74 126.4q4.7 1.7 10.6 1.8c9.6 0 21.3-4.4 33.5-19 20.3-24.4 39.2-44.8 46.2-52.3a74 74 0 0 0 33.2 9v.9l-5.8 7.2c-8 10.2-9.7 12.3-35.5 17.6-7.4 1.5-26.9 5.6-27.2 19.3-.3 14.9 23 21.2 25.8 21.8q13.9 3.5 26.7 3.5c20.8 0 39-6.8 53.6-20-.5 53.3 1.8 105.8 8.2 121.8 5.2 13.1 18 45.1 58.5 45.1q8.8 0 19.6-2.2c42.2-9 60.5-27.7 67.6-68.8 3.8-22 10.3-74.5 13.4-102.7 6.5 2 14.8 3 23.8 3 18.7 0 40.4-4 54-10.3 15.2-7 42.7-24.5 37.7-39.6M472.5 173.6c-.1 8.3-1.3 15.9-2.5 23.7a234 234 0 0 0-3 27.9c-.3 10.3 1 21.1 2.2 31.5 2.6 21 5.1 42.6-4.9 64a83 83 0 0 1-4.4-9.2q-2-4.5-7.7-14.6c-14.6-26.1-48.8-87.3-31.3-112.3 5.2-7.5 18.4-15.1 51.6-11M432.3 32.8c48.6 1 87 19.3 114.3 54 20.9 26.7-2.1 148.2-68.7 253l-2-2.6-.8-1c17.2-28.5 13.8-56.6 10.8-81.5-1.2-10.2-2.4-19.9-2-29 .2-9.6 1.5-17.8 2.7-25.8 1.5-9.8 3-20 2.6-32q.6-1.9.3-4.5c-1-11.5-14.2-46-41-77a186 186 0 0 0-65-49 220 220 0 0 1 48.8-4.6m-272 367c-13.5 16.1-22.8 13-25.8 12-19.9-6.7-43-48.7-63.3-115.4-17.6-57.7-28-115.7-28.8-132C40 113 52.4 77.1 79.5 58c44.2-31.4 117-12.6 146.1-3.1l-1.2 1.2c-48 48.4-46.8 131.1-46.7 136.2q0 2.9.4 8.5c.8 14 2.3 39.8-1.8 69.1a87 87 0 0 0 29 78.8c-8.2 8.8-26 28.3-45 51.1m51.2-68.4a71 71 0 0 1-18.5-59.2c4.3-31 2.7-58 1.8-72.5q0-3-.3-5.2c7-6.2 39.5-23.6 62.6-18.3q15.8 3.5 19.7 22c13.9 64 1.8 90.7-7.8 112.2q-3 6.5-5.5 12.9l-1.2 3.3q-5 12.7-8 23.8a60 60 0 0 1-42.8-19m2.4 86.4a37 37 0 0 1-11.2-4.9c2-1 5.7-2.2 12-3.5 30.3-6.3 35-10.7 45.3-23.7q3.3-4.4 8.7-10.5c5.5-6.1 8-5.1 12.6-3.2 3.7 1.5 7.3 6.1 8.7 11.2.7 2.4 1.5 7-1 10.6-21.5 30-52.7 29.6-75 24m159 148c-37.1 8-50.3-11-59-32.7-5.5-14-8.3-77.2-6.3-146.9q0-1.4-.4-2.7l-1-4.9a34 34 0 0 0-18.5-22.1 26 26 0 0 0-17-2q2.6-10 7.3-22l1.3-3.4q2.1-5.6 5-11.8c10.1-22.5 24-53.2 9-122.7-5.7-26-24.5-38.7-53-35.7a122 122 0 0 0-45 15c2.1-26.2 10.3-75.1 41-106.1 19.4-19.5 45.2-29.2 76.5-28.6 61.9 1 101.6 32.7 124 59.2a188 188 0 0 1 33.8 58q-47-4.6-63.4 18.5c-23.5 33.7 12.8 98.9 30.3 130.2 3.2 5.8 6 10.7 6.9 12.8 5.6 13.8 13 23 18.4 29.8l4.5 5.8c-9.5 2.7-26.6 9-25 40.7-1.3 15.8-10.2 90-14.7 116.3-6 34.7-18.8 47.6-54.6 55.3m155.3-177.6c-9.7 4.5-26 7.9-41.4 8.6-17 .8-25.7-2-27.8-3.6-1-19.7 6.4-21.8 14.2-24l3.5-1 2.4 1.7q20.7 13.5 72.6 3l.4-.2a93 93 0 0 1-24 15.5"/></svg>